<svg width="360" height="62" viewBox="0 0 360 62" fill="none" xmlns="http://www.w3.org/2000/svg">
<g clip-path="url(#clip0_5_30)">
<rect width="361" height="62" fill="white"/>
<path d="M0 43.4L15.0417 37.2C30.0833 31 60.1667 18.6 90.25 16.5333C120.333 14.4667 150.417 22.7333 180.5 27.9C210.583 33.0667 240.667 35.1333 270.75 32.0333C300.833 28.9333 330.917 20.6667 361 19.6333C391.083 18.6 421.167 24.8 451.25 31C481.333 37.2 511.417 43.4 541.5 44.4333C571.583 45.4667 601.667 41.3333 631.75 42.3667C661.833 43.4 691.917 49.6 722 51.6667C752.083 53.7333 782.167 51.6667 812.25 46.5C842.333 41.3333 872.417 33.0667 902.5 29.9667C932.583 26.8667 962.667 28.9333 992.75 28.9333C1022.83 28.9333 1052.92 26.8667 1083 26.8667C1113.08 26.8667 1143.17 28.9333 1173.25 25.8333C1203.33 22.7333 1233.42 14.4667 1263.5 12.4C1293.58 10.3333 1323.67 14.4667 1353.75 18.6C1383.83 22.7333 1413.92 26.8667 1444 27.9C1474.08 28.9333 1504.17 26.8667 1534.25 22.7333C1564.33 18.6 1594.42 12.4 1624.5 11.3667C1654.58 10.3333 1684.67 14.4667 1714.75 13.4333C1744.83 12.4 1774.92 6.2 1805 12.4C1835.08 18.6 1865.17 37.2 1895.25 42.3667C1925.33 47.5333 1955.42 39.2667 1985.5 39.2667C2015.58 39.2667 2045.67 47.5333 2075.75 48.5667C2105.83 49.6 2135.92 43.4 2150.96 40.3L2166 37.2V62H2150.96C2135.92 62 2105.83 62 2075.75 62C2045.67 62 2015.58 62 1985.5 62C1955.42 62 1925.33 62 1895.25 62C1865.17 62 1835.08 62 1805 62C1774.92 62 1744.83 62 1714.75 62C1684.67 62 1654.58 62 1624.5 62C1594.42 62 1564.33 62 1534.25 62C1504.17 62 1474.08 62 1444 62C1413.92 62 1383.83 62 1353.75 62C1323.67 62 1293.58 62 1263.5 62C1233.42 62 1203.33 62 1173.25 62C1143.17 62 1113.08 62 1083 62C1052.92 62 1022.83 62 992.75 62C962.667 62 932.583 62 902.5 62C872.417 62 842.333 62 812.25 62C782.167 62 752.083 62 722 62C691.917 62 661.833 62 631.75 62C601.667 62 571.583 62 541.5 62C511.417 62 481.333 62 451.25 62C421.167 62 391.083 62 361 62C330.917 62 300.833 62 270.75 62C240.667 62 210.583 62 180.5 62C150.417 62 120.333 62 90.25 62C60.1667 62 30.0833 62 15.0417 62H0V43.4Z" fill="#FFB1B1"/>
</g>
<defs>
<clipPath id="clip0_5_30">
<rect width="361" height="62" fill="white"/>
</clipPath>
</defs>
</svg>
